<svg width="16" height="16" viewBox="0 0 16 16" fill="none" xmlns="http://www.w3.org/2000/svg">
<path d="M4.66667 10.8665C6.13333 10.8665 7.33333 9.64654 7.33333 8.16654C7.33333 7.3932 6.95333 6.65987 6.19333 6.03987C5.43333 5.41987 4.86 4.49987 4.66667 3.5332C4.47333 4.49987 3.90667 5.42654 3.14 6.03987C2.37333 6.6532 2 7.39987 2 8.16654C2 9.64654 3.2 10.8665 4.66667 10.8665Z" stroke="#755C44" stroke-width="1.33333" stroke-linecap="round" stroke-linejoin="round"/>
<path d="M8.37388 4.40034C8.83239 3.66776 9.15741 2.8597 9.33388 2.01367C9.66721 3.68034 10.6672 5.28034 12.0005 6.34701C13.3339 7.41367 14.0005 8.68034 14.0005 10.0137C14.0044 10.9352 13.7345 11.8371 13.2251 12.6051C12.7157 13.373 11.9898 13.9724 11.1393 14.3273C10.2888 14.6822 9.35216 14.7766 8.448 14.5985C7.54383 14.4204 6.7129 13.9779 6.06055 13.327" stroke="#755C44" stroke-width="1.33333" stroke-linecap="round" stroke-linejoin="round"/>
</svg>
