<svg width="20" height="20" viewBox="0 0 20 20" fill="none" xmlns="http://www.w3.org/2000/svg">
<path fill-rule="evenodd" clip-rule="evenodd" d="M6.66602 7.49967H9.99935Z" fill="#AD8E71"/>
<path d="M6.66602 7.49967H9.99935" stroke="#222222" stroke-width="1.5" stroke-linecap="round" stroke-linejoin="round"/>
<path fill-rule="evenodd" clip-rule="evenodd" d="M2.5 5C2.5 3.61929 3.61929 2.5 5 2.5H15C16.3807 2.5 17.5 3.61929 17.5 5V17.0827C17.5 17.2341 17.4178 17.3737 17.2853 17.4471C17.1528 17.5205 16.9909 17.5163 16.8625 17.436L14.2982 15.8333H5C3.61929 15.8333 2.5 14.714 2.5 13.3333V5Z" fill="#AD8E71"/>
<path fill-rule="evenodd" clip-rule="evenodd" d="M13.3333 7.49967H12.5Z" fill="#AD8E71"/>
<path d="M13.3333 7.49967H12.5" stroke="#222222" stroke-width="1.5" stroke-linecap="round" stroke-linejoin="round"/>
<path fill-rule="evenodd" clip-rule="evenodd" d="M13.3333 10.8337H10Z" fill="#AD8E71"/>
<path d="M13.3333 10.8337H10" stroke="#222222" stroke-width="1.5" stroke-linecap="round" stroke-linejoin="round"/>
<path fill-rule="evenodd" clip-rule="evenodd" d="M6.66602 10.8337H7.49935Z" fill="#AD8E71"/>
<path d="M6.66602 10.8337H7.49935" stroke="#222222" stroke-width="1.5" stroke-linecap="round" stroke-linejoin="round"/>
</svg>
