<svg width="16" height="16" viewBox="0 0 16 16" fill="none" xmlns="http://www.w3.org/2000/svg">
<g clip-path="url(#clip0_4323_13295)">
<path d="M12.0007 7.33366V4.00033C12.0007 3.6467 11.8602 3.30756 11.6101 3.05752C11.3601 2.80747 11.0209 2.66699 10.6673 2.66699C10.3137 2.66699 9.97456 2.80747 9.72451 3.05752C9.47446 3.30756 9.33398 3.6467 9.33398 4.00033" stroke="#755C44" stroke-width="1.33333" stroke-linecap="round" stroke-linejoin="round"/>
<path d="M9.33268 6.66634V2.66634C9.33268 2.31272 9.19221 1.97358 8.94216 1.72353C8.69211 1.47348 8.35297 1.33301 7.99935 1.33301C7.64573 1.33301 7.30659 1.47348 7.05654 1.72353C6.80649 1.97358 6.66602 2.31272 6.66602 2.66634V3.99967" stroke="#755C44" stroke-width="1.33333" stroke-linecap="round" stroke-linejoin="round"/>
<path d="M6.66667 7.00033V4.00033C6.66667 3.6467 6.52619 3.30756 6.27614 3.05752C6.02609 2.80747 5.68696 2.66699 5.33333 2.66699C4.97971 2.66699 4.64057 2.80747 4.39052 3.05752C4.14048 3.30756 4 3.6467 4 4.00033V9.33366" stroke="#755C44" stroke-width="1.33333" stroke-linecap="round" stroke-linejoin="round"/>
<path d="M12.0007 5.33333C12.0007 4.97971 12.1412 4.64057 12.3912 4.39052C12.6413 4.14048 12.9804 4 13.3341 4C13.6877 4 14.0268 4.14048 14.2769 4.39052C14.5269 4.64057 14.6674 4.97971 14.6674 5.33333V9.33333C14.6674 10.7478 14.1055 12.1044 13.1053 13.1046C12.1051 14.1048 10.7485 14.6667 9.33405 14.6667H8.00072C6.13405 14.6667 5.00072 14.0933 4.00739 13.1067L1.60739 10.7067C1.37801 10.4526 1.25511 10.1201 1.26414 9.77796C1.27316 9.43581 1.41342 9.11023 1.65587 8.86864C1.89832 8.62705 2.22439 8.48794 2.56657 8.48013C2.90875 8.47232 3.24083 8.59639 3.49405 8.82667L4.66739 10" stroke="#755C44" stroke-width="1.33333" stroke-linecap="round" stroke-linejoin="round"/>
</g>
<defs>
<clipPath id="clip0_4323_13295">
<rect width="16" height="16" fill="white"/>
</clipPath>
</defs>
</svg>
