<svg width="20" height="22" viewBox="0 0 20 22" fill="none" xmlns="http://www.w3.org/2000/svg">
<path d="M0.75 16.75H0H0.75ZM0.750001 4.75H1.5H0.750001ZM4.75 0.75V0V0.75ZM14.75 0.75V4.17233e-07V0.75ZM18.75 4.75H18V4.75H18.75ZM18.75 11.0931H19.5V11.0931H18.75ZM9.09315 20.75V20V20V20.75ZM4.75 20.75V21.5V21.5V20.75ZM17.5784 13.9216L17.0481 13.3912V13.3912L17.5784 13.9216ZM11.9216 19.5784L12.4519 20.1088V20.1088L11.9216 19.5784ZM10.75 16.75H10V16.75H10.75ZM14.75 12.75V12V12V12.75ZM6.75 7C6.33579 7 6 7.33579 6 7.75C6 8.16421 6.33579 8.5 6.75 8.5V7.75V7ZM12.75 8.5C13.1642 8.5 13.5 8.16421 13.5 7.75C13.5 7.33579 13.1642 7 12.75 7V7.75V8.5ZM0.75 16.75H1.5L1.5 4.75H0.750001H5.36442e-07L0 16.75H0.75ZM4.75 0.75V1.5L14.75 1.5V0.75V4.17233e-07L4.75 0V0.75ZM18.75 4.75H18V11.0931H18.75H19.5V4.75H18.75ZM9.09315 20.75V20H4.75V20.75V21.5H9.09315V20.75ZM17.5784 13.9216L17.0481 13.3912L11.3912 19.0481L11.9216 19.5784L12.4519 20.1088L18.1088 14.4519L17.5784 13.9216ZM9.09315 20.75V21.5C10.3529 21.5 11.5611 20.9996 12.4519 20.1088L11.9216 19.5784L11.3912 19.0481C10.7817 19.6576 9.9551 20 9.09315 20V20.75ZM18.75 11.0931H18C18 11.9551 17.6576 12.7818 17.0481 13.3912L17.5784 13.9216L18.1088 14.4519C18.9996 13.5611 19.5 12.3529 19.5 11.0931H18.75ZM0.750001 4.75H1.5C1.5 2.95507 2.95508 1.5 4.75 1.5V0.75V0C2.12665 -1.19209e-07 6.55651e-07 2.12665 5.36442e-07 4.75H0.750001ZM0.75 16.75H0C-1.19209e-07 19.3734 2.12665 21.5 4.75 21.5V20.75V20C2.95507 20 1.5 18.5449 1.5 16.75H0.75ZM14.75 0.75V1.5C16.5449 1.5 18 2.95508 18 4.75H18.75H19.5C19.5 2.12665 17.3734 5.36442e-07 14.75 4.17233e-07V0.75ZM10.75 20.75H11.5V16.75H10.75H10V20.75H10.75ZM14.75 12.75V13.5L18.75 13.5V12.75V12L14.75 12V12.75ZM10.75 16.75H11.5C11.5 14.9551 12.9551 13.5 14.75 13.5V12.75V12C12.1266 12 10 14.1266 10 16.75H10.75ZM6.75 7.75V8.5H12.75V7.75V7H6.75V7.75Z" fill="#1A1A1A"/>
</svg>
