<svg width="40" height="40" viewBox="0 0 40 40" fill="none" xmlns="http://www.w3.org/2000/svg">
<path d="M20 0.5C30.7696 0.5 39.5 9.23045 39.5 20C39.5 30.7696 30.7696 39.5 20 39.5C9.23045 39.5 0.5 30.7696 0.5 20C0.5 9.23045 9.23045 0.5 20 0.5Z" fill="#F3F3F3"/>
<path d="M20 0.5C30.7696 0.5 39.5 9.23045 39.5 20C39.5 30.7696 30.7696 39.5 20 39.5C9.23045 39.5 0.5 30.7696 0.5 20C0.5 9.23045 9.23045 0.5 20 0.5Z" stroke="white"/>
<rect x="10" y="10" width="20" height="20" rx="4" stroke="#755C44" stroke-width="1.5"/>
<circle cx="26" cy="14" r="1" fill="#755C44"/>
<circle cx="20" cy="20" r="5" stroke="#755C44" stroke-width="1.5"/>
</svg>
