<svg width="40" height="40" viewBox="0 0 40 40" fill="none" xmlns="http://www.w3.org/2000/svg">
<path d="M20 0.5C30.7696 0.5 39.5 9.23045 39.5 20C39.5 30.7696 30.7696 39.5 20 39.5C9.23045 39.5 0.5 30.7696 0.5 20C0.5 9.23045 9.23045 0.5 20 0.5Z" fill="#F3F3F3"/>
<path d="M20 0.5C30.7696 0.5 39.5 9.23045 39.5 20C39.5 30.7696 30.7696 39.5 20 39.5C9.23045 39.5 0.5 30.7696 0.5 20C0.5 9.23045 9.23045 0.5 20 0.5Z" stroke="white"/>
<circle cx="12" cy="12" r="2" stroke="#755C44" stroke-width="1.5"/>
<path d="M10 16.5H14V30H10V16.5Z" stroke="#755C44" stroke-width="1.5" stroke-linejoin="round"/>
<path d="M17 30H21V23C21 21.8954 21.8954 21 23 21C24.1046 21 25 21.8954 25 23V30H29V23C29 19.6863 26.3137 17 23 17C22.2987 17 21.6256 17.1203 21 17.3414V16.5H17V30ZM17 30V23" stroke="#755C44" stroke-width="1.5" stroke-linejoin="round"/>
</svg>
