<svg width="40" height="40" viewBox="0 0 40 40" fill="none" xmlns="http://www.w3.org/2000/svg">
<path d="M20 0.5C30.7696 0.5 39.5 9.23045 39.5 20C39.5 30.7696 30.7696 39.5 20 39.5C9.23045 39.5 0.5 30.7696 0.5 20C0.5 9.23045 9.23045 0.5 20 0.5Z" fill="#F3F3F3"/>
<path d="M20 0.5C30.7696 0.5 39.5 9.23045 39.5 20C39.5 30.7696 30.7696 39.5 20 39.5C9.23045 39.5 0.5 30.7696 0.5 20C0.5 9.23045 9.23045 0.5 20 0.5Z" stroke="white"/>
<path d="M18 29C21.3137 29 24 26.3137 24 23V16.1973C24.8825 16.7078 25.9071 17 27 17H28V14H27C25.3431 14 24 12.6569 24 11H21V23C21 24.6569 19.6569 26 18 26C16.3431 26 15 24.6569 15 23C15 21.3431 16.3431 20 18 20V17C14.6863 17 12 19.6863 12 23C12 26.3137 14.6863 29 18 29Z" stroke="#755C44" stroke-width="1.5" stroke-linecap="round" stroke-linejoin="round"/>
</svg>
