<svg width="24" height="24" viewBox="0 0 24 24" fill="none" xmlns="http://www.w3.org/2000/svg">
<g clip-path="url(#clip0_1898_909)">
<path d="M-3.99414 0H28.0059V24H-3.99414V0Z" fill="#3F9C35"/>
<path d="M-3.99414 0H28.0059V16H-3.99414V0Z" fill="#ED2939"/>
<path d="M-3.99414 0H28.0059V8H-3.99414V0Z" fill="#00B9E4"/>
<path d="M11.1996 15.6004C13.1878 15.6004 14.7996 13.9886 14.7996 12.0004C14.7996 10.0122 13.1878 8.40039 11.1996 8.40039C9.21138 8.40039 7.59961 10.0122 7.59961 12.0004C7.59961 13.9886 9.21138 15.6004 11.1996 15.6004Z" fill="white"/>
<path d="M12 15C13.6569 15 15 13.6569 15 12C15 10.3431 13.6569 9 12 9C10.3431 9 9 10.3431 9 12C9 13.6569 10.3431 15 12 15Z" fill="#ED2939"/>
<path d="M15.1992 10L15.5842 11.075L16.6142 10.585L16.1242 11.62L17.1992 12L16.1242 12.385L16.6142 13.415L15.5842 12.925L15.1992 14L14.8142 12.925L13.7842 13.415L14.2742 12.385L13.1992 12L14.2742 11.615L13.7842 10.585L14.8142 11.075L15.1992 10Z" fill="white"/>
</g>
<defs>
<clipPath id="clip0_1898_909">
<rect width="24" height="24" rx="12" fill="white"/>
</clipPath>
</defs>
</svg>
