<svg width="56" height="48" viewBox="0 0 56 48" fill="none" xmlns="http://www.w3.org/2000/svg">
<path d="M24 0.5H32C44.9787 0.5 55.5 11.0213 55.5 24C55.5 36.9787 44.9787 47.5 32 47.5H24C11.0213 47.5 0.5 36.9787 0.5 24C0.5 11.0213 11.0213 0.5 24 0.5Z" fill="#F3F3F3"/>
<path d="M24 0.5H32C44.9787 0.5 55.5 11.0213 55.5 24C55.5 36.9787 44.9787 47.5 32 47.5H24C11.0213 47.5 0.5 36.9787 0.5 24C0.5 11.0213 11.0213 0.5 24 0.5Z" stroke="white"/>
<path d="M32 18C32 15.7909 30.2091 14 28 14C25.7909 14 24 15.7909 24 18" stroke="#755C44" stroke-width="1.5" stroke-linecap="round" stroke-linejoin="round"/>
<path d="M20.5627 21.5039C20.8129 19.5021 22.5145 18 24.5318 18H31.4696C33.4869 18 35.1885 19.5021 35.4387 21.5039L36.4387 29.5039C36.7371 31.8913 34.8756 34 32.4696 34H23.5318C21.1258 34 19.2643 31.8913 19.5627 29.5039L20.5627 21.5039Z" stroke="#755C44" stroke-width="1.5" stroke-linejoin="round"/>
</svg>
