<svg width="56" height="48" viewBox="0 0 56 48" fill="none" xmlns="http://www.w3.org/2000/svg">
<path d="M24 0.5H32C44.9787 0.5 55.5 11.0213 55.5 24C55.5 36.9787 44.9787 47.5 32 47.5H24C11.0213 47.5 0.5 36.9787 0.5 24C0.5 11.0213 11.0213 0.5 24 0.5Z" fill="#F3F3F3"/>
<path d="M24 0.5H32C44.9787 0.5 55.5 11.0213 55.5 24C55.5 36.9787 44.9787 47.5 32 47.5H24C11.0213 47.5 0.5 36.9787 0.5 24C0.5 11.0213 11.0213 0.5 24 0.5Z" stroke="white"/>
<path d="M38 24C38 29.5228 33.5228 34 28 34M38 24C38 18.4772 33.5228 14 28 14M38 24C38 22.3431 33.5228 21 28 21C22.4772 21 18 22.3431 18 24M38 24C38 25.6569 33.5228 27 28 27C22.4772 27 18 25.6569 18 24M28 34C22.4772 34 18 29.5228 18 24M28 34C30.2091 34 32 29.5228 32 24C32 18.4772 30.2091 14 28 14M28 34C25.7909 34 24 29.5228 24 24C24 18.4772 25.7909 14 28 14M18 24C18 18.4772 22.4772 14 28 14" stroke="#755C44" stroke-width="1.5"/>
</svg>
