<svg width="120" height="24" viewBox="0 0 120 24" fill="none" xmlns="http://www.w3.org/2000/svg">
<path d="M28.6155 0H38.5473C40.3295 0.251861 41.9125 0.599104 43.0591 2.1188C43.9893 3.35158 44.2316 4.91024 44.0475 6.41602C43.7123 9.15284 41.3353 10.6564 38.7405 10.8527C40.1998 12.7081 41.7017 14.5295 43.2451 16.3155C43.8936 17.0615 45.4359 18.8581 46.2177 19.4546C48.3131 21.0532 51.1113 22.6549 53.78 22.968C54.6408 23.069 55.4663 23.0662 56.3152 23.0659C55.2943 23.6227 54.6179 23.7659 53.4786 24H51.3517C50.6221 23.8348 49.8888 23.6607 49.1748 23.4104C44.4495 21.7535 40.9764 17.5713 37.9206 13.7972C37.4769 13.2492 36.1478 11.4886 35.9185 11.0086C34.7868 11.0267 33.5978 11.0058 32.4619 11.0027L32.4553 19.1922C32.9816 19.9869 33.6806 20.0426 34.5674 20.2405C32.6007 20.2964 30.3725 20.2525 28.3867 20.2524C29.3462 19.9784 29.61 19.9722 30.2877 19.2188C30.3497 15.8786 30.2547 12.5073 30.2932 9.16367C30.3225 6.61007 30.2754 4.04725 30.2871 1.49309C30.2922 0.386045 29.5208 0.262163 28.6155 0ZM32.4634 10.6604C33.6279 10.682 34.7911 10.7034 35.9556 10.6773C37.8137 10.6356 38.8902 10.472 40.3541 9.2801C42.2094 7.20609 42.5329 3.55969 40.3878 1.55942C38.383 -0.309899 34.9602 0.547287 32.4585 0.310304L32.4634 10.6604Z" fill="#755C44"/>
<path d="M0 0H15.1277C15.0213 0.555631 13.5536 2.6009 13.15 3.20303L9.84914 8.125L1.9323 19.9669L8.79223 19.9817C9.62162 19.9823 11.5874 20.0584 12.2687 19.8966C13.3037 19.6506 14.6963 17.4808 15.4422 16.7368C15.3733 17.33 15.1358 19.802 14.8082 20.1278C14.1441 20.3354 10.536 20.2528 9.5751 20.2527L0 20.2522V18.9602C0.927422 17.33 2.57887 15.1036 3.64017 13.4834C4.96536 11.464 6.3051 9.45413 7.65932 7.45399C9.20689 5.12094 10.8356 2.62263 12.4308 0.323165C9.43734 0.34589 6.36773 0.212824 3.37876 0.329006C2.14349 0.377021 0.738428 2.42056 0 3.39155V0Z" fill="#755C44"/>
<path d="M50.7078 0H64.9206C65.2774 0.347872 65.5282 2.91988 65.5967 3.54409C64.8942 2.5099 63.6339 0.55955 62.3682 0.354774C61.5772 0.226792 60.021 0.288134 59.1819 0.289588L54.5045 0.296491C54.55 3.20166 54.5115 6.20418 54.5117 9.11696L58.5849 9.12802C59.8803 9.13253 62.8797 9.45108 63.0872 7.66683C63.1194 7.39101 63.1891 7.12443 63.2536 6.85528C63.3649 8.50519 63.3403 9.90574 63.2694 11.5469C63.1311 10.9786 63.0649 10.5848 62.759 10.0881C61.5795 9.27032 59.8053 9.41725 58.422 9.41918L54.5066 9.42568C54.5805 12.8343 54.516 16.535 54.5056 19.9641C56.9907 20.0169 59.493 19.9497 61.978 19.9806C63.9755 20.0053 64.9522 18.1965 65.8879 16.6909C65.8206 17.3531 65.5733 19.7652 65.2903 20.1053C65.0934 20.3421 60.2577 20.2556 59.8352 20.2555L50.6523 20.2565C51.5389 19.9946 51.8138 20.0022 52.3383 19.2368L52.3294 0.967381C51.854 0.278909 51.4739 0.219087 50.7078 0Z" fill="#755C44"/>
<path d="M101.107 0H107.508C106.569 0.400657 106.215 0.479821 105.843 1.50445L105.839 1.51491C107.188 3.90494 108.859 6.38172 110.252 8.7566C110.522 9.216 111.79 11.1755 111.94 11.5724C113.745 8.3407 115.728 5.18698 117.548 1.96092C118.309 0.613223 116.601 0.237359 115.636 0H120V0.248579C118.667 0.64553 117.837 2.24792 117.187 3.34479C116.552 4.41978 115.923 5.49882 115.301 6.58185C114.419 8.0928 112.56 10.8165 112.314 12.4304C112.018 14.3736 112.142 17.177 112.141 19.184L112.147 19.1936C112.659 19.9858 113.389 20.0507 114.263 20.2401C112.236 20.2791 110.144 20.2519 108.113 20.2501C109.059 19.9696 109.302 19.9589 109.974 19.2181C110.005 18.4452 109.985 17.4399 109.983 16.6664C109.979 14.936 110.109 12.8767 109.346 11.2819C108.919 10.3887 108.267 9.40238 107.727 8.55026L105.062 4.36427C104.378 3.29265 103.635 1.9768 102.854 0.994349C102.497 0.545247 101.642 0.203668 101.107 0Z" fill="#755C44"/>
<path d="M88.0996 0H94.2508C93.7281 0.198021 92.9541 0.231628 92.4965 0.695602C92.3992 0.794101 92.265 0.969899 92.2545 1.10893C92.2 1.79766 92.2193 2.53931 92.2188 3.23229L92.2193 7.10734L92.2217 19.965C93.9262 19.9887 95.6857 19.9811 97.392 19.9818C98.1361 19.982 100.373 20.0429 100.92 19.8755C102.21 19.4808 103.299 17.7035 103.906 16.6063C103.885 17.1511 103.564 19.7555 103.301 20.1108C102.774 20.3461 98.5803 20.2553 97.7793 20.2551L88.3053 20.2564C88.9281 20.0977 89.9746 19.8825 90.032 19.0777C90.0883 18.2942 90.0695 17.4892 90.0701 16.7018V12.4999C90.0701 8.79313 90.1545 4.70495 90.0496 1.02434C89.5346 0.31203 88.9123 0.218987 88.0996 0Z" fill="#755C44"/>
<path d="M69.8359 0H76.0123C75.3361 0.271792 74.1063 0.274625 74.0189 1.26387C73.9527 2.01095 73.9756 2.77816 73.975 3.52946V7.28271L73.9691 19.9619C75.499 20.0046 77.1813 19.9768 78.7229 19.9815C79.6697 19.9843 81.9291 20.059 82.7219 19.8587C83.8943 19.5624 85.0973 17.5935 85.6609 16.5922C85.6287 17.1057 85.3105 19.7596 85.0603 20.1114C84.4937 20.3453 80.5147 20.255 79.5578 20.2548L70.1828 20.2518C71.0219 19.9975 71.2445 19.9684 71.8023 19.3006C71.8551 18.707 71.8252 17.5903 71.8252 16.9697L71.827 12.618C71.8275 8.89674 71.8352 5.16404 71.817 1.44225C71.8158 1.30215 71.8041 1.01224 71.7314 0.899924C71.367 0.334919 70.443 0.152418 69.8359 0Z" fill="#755C44"/>
<path d="M19.2656 0H25.3949C24.5969 0.327772 24.1566 0.122298 23.4393 0.972515C23.3771 7.02656 23.4255 13.2214 23.4401 19.2835C23.9723 19.9829 24.6881 20.0679 25.4933 20.2425C23.5184 20.2998 21.2717 20.2528 19.2778 20.2535C19.8232 20.1053 20.5301 19.9524 20.9312 19.546C21.0333 19.4425 21.1954 19.2221 21.1996 19.0757C21.2168 18.4806 21.2089 17.8582 21.2087 17.2643L21.2074 13.4409L21.2082 1.01996C20.7223 0.32142 20.0445 0.196688 19.2656 0Z" fill="#755C44"/>
</svg>
