<svg width="40" height="40" viewBox="0 0 40 40" fill="none" xmlns="http://www.w3.org/2000/svg">
<path d="M20 0.5C30.7696 0.5 39.5 9.23045 39.5 20C39.5 30.7696 30.7696 39.5 20 39.5C9.23045 39.5 0.5 30.7696 0.5 20C0.5 9.23045 9.23045 0.5 20 0.5Z" fill="#F3F3F3"/>
<path d="M20 0.5C30.7696 0.5 39.5 9.23045 39.5 20C39.5 30.7696 30.7696 39.5 20 39.5C9.23045 39.5 0.5 30.7696 0.5 20C0.5 9.23045 9.23045 0.5 20 0.5Z" stroke="white"/>
<path d="M29.0039 13.9973H10.9964" stroke="#755C44" stroke-width="2" stroke-linecap="round" stroke-linejoin="round"/>
<path d="M14.9981 20.0002H29.0039" stroke="#755C44" stroke-width="2" stroke-linecap="round" stroke-linejoin="round"/>
<path d="M29.0039 26.0022H18.9997" stroke="#755C44" stroke-width="2" stroke-linecap="round" stroke-linejoin="round"/>
</svg>
